{
date = "2016-11-08 10:02:54 +0000";
familyName = "new Font";
featurePrefixes = (
{
automatic = 1;
code = "languagesystem DFLT dflt;\012languagesystem latn dflt;\012";
name = Languagesystems;
}
);
features = (
{
automatic = 1;
code = "feature frac;\012";
name = aalt;
},
{
automatic = 1;
code = "lookup FRAC {\012\011sub slash by fraction;\012} FRAC;\012lookup UP {\012\011sub [zero one two three four five six seven eight nine] by [zero.numr one.numr two.numr three.numr four.numr five.numr six.numr seven.numr eight.numr nine.numr];\012} UP;\012lookup DOWN {\012\011sub fraction [zero.numr one.numr two.numr three.numr four.numr five.numr six.numr seven.numr eight.numr nine.numr]' by [zero.dnom one.dnom two.dnom three.dnom four.dnom five.dnom six.dnom seven.dnom eight.dnom nine.dnom];\012\011sub [zero.dnom one.dnom two.dnom three.dnom four.dnom five.dnom six.dnom seven.dnom eight.dnom nine.dnom] [zero.numr one.numr two.numr three.numr four.numr five.numr six.numr seven.numr eight.numr nine.numr]' by [zero.dnom one.dnom two.dnom three.dnom four.dnom five.dnom six.dnom seven.dnom eight.dnom nine.dnom];\012} DOWN;\012";
name = frac;
}
);
fontMaster = (
{
ascender = 800;
capHeight = 700;
descender = "-200";
id = "7EBE3D46-E53E-419E-A3EC-596DA2EA1E0D";
userData = {
GSCornerRadius = 15;
};
xHeight = 500;
}
);
glyphs = (
{
glyphname = A;
lastChange = "2016-11-10 11:40:06 +0000";
layers = (
{
anchors = (
{
name = ogonek;
position = "{577, 10}";
},
{
name = top;
position = "{337, 700}";
}
);
components = (
{
name = _slash;
transform = "{-1, 0, 0, 1, 655, -1}";
},
{
name = _slash;
transform = "{1, 0, 0, 1, -3, -1}";
},
{
name = _dash;
transform = "{1, 0, 0, 1, 27, -51}";
}
);
layerId = "7EBE3D46-E53E-419E-A3EC-596DA2EA1E0D";
name = Regular;
paths = (
{
closed = 0;
nodes = (
"377 396 LINE"
);
}
);
width = 652;
}
);
unicode = 0041;
},
{
glyphname = B;
lastChange = "2016-11-10 11:40:06 +0000";
layers = (
{
background = {
paths = (
{
closed = 1;
nodes = (
"290 356 OFFCURVE",
"233 353 OFFCURVE",
"313 362 CURVE",
"367 379 OFFCURVE",
"403 421 OFFCURVE",
"403 508 CURVE SMOOTH",
"403 638 OFFCURVE",
"349 703 OFFCURVE",
"211 701 CURVE SMOOTH",
"141 700 LINE",
"141 700 OFFCURVE",
"138 356 OFFCURVE",
"138 356 CURVE SMOOTH"
);
},
{
closed = 1;
nodes = (
"192 619 LINE SMOOTH",
"280 619 OFFCURVE",
"316 586 OFFCURVE",
"316 513 CURVE SMOOTH",
"316 439 OFFCURVE",
"301 396 OFFCURVE",
"216 396 CURVE SMOOTH",
"121 396 LINE",
"121 619 LINE"
);
}
);
};
components = (
{
name = _I;
transform = "{1, 0, 0, 1, 30, 0}";
},
{
name = _curve_B;
transform = "{1, 0, 0, -1, 54, 701}";
},
{
name = _curve_B;
transform = "{1, 0, 0, 1, 38, 1}";
}
);
layerId = "7EBE3D46-E53E-419E-A3EC-596DA2EA1E0D";
name = Regular;
width = 556;
}
);
unicode = 0042;
},
{
glyphname = G;
lastChange = "2016-11-10 11:40:06 +0000";
layers = (
{
components = (
{
name = _C_curve;
transform = "{1, 0, -0, -1, 39, 654}";
},
{
name = _C_curve;
transform = "{1, 0, 0, 1, 40, 44}";
}
);
layerId = "7EBE3D46-E53E-419E-A3EC-596DA2EA1E0D";
name = Regular;
paths = (
{
closed = 1;
nodes = (
"438 17 CURVE SMOOTH",
"487 48 OFFCURVE",
"505 90 OFFCURVE",
"515 201 CURVE",
"516 312 LINE SMOOTH",
"351 312 LINE",
"351 231 LINE",
"428 231 LINE SMOOTH",
"428 231 OFFCURVE",
"437 106 OFFCURVE",
"355 85 CURVE SMOOTH",
"320 76 OFFCURVE",
"369 -27 OFFCURVE"
);
}
);
width = 586;
}
);
unicode = 0047;
},
{
glyphname = K;
lastChange = "2016-11-10 11:40:06 +0000";
layers = (
{
components = (
{
name = _I;
transform = "{1, 0, 0, 1, 30, 0}";
},
{
name = _x;
transform = "{-1, 0, 0, 1, 669, 247}";
},
{
name = _x;
transform = "{1, 0, 0, -1, -120, 703}";
}
);
layerId = "7EBE3D46-E53E-419E-A3EC-596DA2EA1E0D";
name = Regular;
paths = (
{
closed = 1;
nodes = (
"203 337 LINE SMOOTH",
"384 2 LINE",
"462 2 LINE",
"462 45 LINE",
"267 405 LINE SMOOTH"
);
}
);
width = 542;
}
);
unicode = 004B;
},
{
glyphname = S;
lastChange = "2016-11-10 11:40:06 +0000";
layers = (
{
layerId = "7EBE3D46-E53E-419E-A3EC-596DA2EA1E0D";
name = Regular;
paths = (
{
closed = 1;
nodes = (
"198 435 OFFCURVE",
"168 457 OFFCURVE",
"168 523 CURVE SMOOTH",
"168 571 OFFCURVE",
"202 618 OFFCURVE",
"292 618 CURVE SMOOTH",
"357 618 OFFCURVE",
"407 600 OFFCURVE",
"455 562 CURVE",
"476 654 LINE",
"436 691 OFFCURVE",
"361 709 OFFCURVE",
"293 709 CURVE SMOOTH",
"201 709 OFFCURVE",
"70 670 OFFCURVE",
"70 524 CURVE SMOOTH",
"70 416 OFFCURVE",
"135 358 OFFCURVE",
"275 311 CURVE SMOOTH",
"368 280 OFFCURVE",
"417 248 OFFCURVE",
"416 190 CURVE SMOOTH",
"415 116 OFFCURVE",
"361 81 OFFCURVE",
"272 80 CURVE SMOOTH",
"270 80 LINE SMOOTH",
"194 80 OFFCURVE",
"139 98 OFFCURVE",
"91 144 CURVE",
"70 52 LINE",
"111 15 OFFCURVE",
"190 -13 OFFCURVE",
"269 -12 CURVE",
"430 -12 OFFCURVE",
"512 68 OFFCURVE",
"514 189 CURVE SMOOTH",
"516 311 OFFCURVE",
"413 375 OFFCURVE",
"276 412 CURVE SMOOTH"
);
}
);
width = 584;
}
);
unicode = 0053;
},
{
glyphname = a;
lastChange = "2016-11-10 11:40:06 +0000";
layers = (
{
layerId = "7EBE3D46-E53E-419E-A3EC-596DA2EA1E0D";
name = Regular;
paths = (
{
closed = 1;
nodes = (
"475 334 LINE",
"432 285 LINE",
"383 294 LINE",
"347 306 OFFCURVE",
"296 312 OFFCURVE",
"251 307 CURVE SMOOTH",
"170 298 OFFCURVE",
"71 261 OFFCURVE",
"70 146 CURVE",
"70 36 OFFCURVE",
"146 -11 OFFCURVE",
"232 -11 CURVE SMOOTH",
"289 -11 OFFCURVE",
"345 -4 OFFCURVE",
"383 52 CURVE",
"383 0 LINE",
"475 0 LINE"
);
},
{
closed = 1;
nodes = (
"215 72 OFFCURVE",
"169 84 OFFCURVE",
"169 148 CURVE SMOOTH",
"169 242 OFFCURVE",
"292 247 OFFCURVE",
"383 222 CURVE",
"383 196 LINE",
"383 101 OFFCURVE",
"300 73 OFFCURVE",
"249 73 CURVE SMOOTH"
);
},
{
closed = 1;
nodes = (
"381 294 LINE",
"381 169 OFFCURVE",
"475 174 OFFCURVE",
"475 331 CURVE SMOOTH",
"475 437 OFFCURVE",
"408 508 OFFCURVE",
"261 508 CURVE SMOOTH",
"195 508 OFFCURVE",
"128 474 OFFCURVE",
"100 451 CURVE",
"118 366 LINE",
"164 403 OFFCURVE",
"215 421 OFFCURVE",
"260 421 CURVE SMOOTH",
"341 421 OFFCURVE",
"381 395 OFFCURVE",
"381 312 CURVE SMOOTH"
);
}
);
width = 545;
}
);
unicode = 0061;
},
{
glyphname = e;
lastChange = "2016-11-10 11:40:06 +0000";
layers = (
{
components = (
{
name = _curve_lower_big;
transform = "{1, 0, 0, 1, 613, 1}";
}
);
layerId = "7EBE3D46-E53E-419E-A3EC-596DA2EA1E0D";
name = Regular;
paths = (
{
closed = 1;
nodes = (
"165 239 LINE",
"497 239 LINE",
"497 292 LINE SMOOTH",
"497 419 OFFCURVE",
"413 511 OFFCURVE",
"285 511 CURVE SMOOTH",
"158 511 OFFCURVE",
"71 408 OFFCURVE",
"71 282 CURVE SMOOTH",
"71 224 LINE",
"118 238 LINE"
);
},
{
closed = 1;
nodes = (
"356 426 OFFCURVE",
"402 386 OFFCURVE",
"407 313 CURVE",
"168 313 LINE",
"177 388 OFFCURVE",
"216 426 OFFCURVE",
"286 426 CURVE SMOOTH"
);
}
);
width = 567;
}
);
unicode = 0065;
},
{
glyphname = k;
lastChange = "2016-11-10 11:40:06 +0000";
layers = (
{
components = (
{
name = _I_dbh;
transform = "{1, 0, 0, 1, 30, 0}";
},
{
name = _x;
transform = "{1, 0, 0, 1, -151, 0}";
}
);
layerId = "7EBE3D46-E53E-419E-A3EC-596DA2EA1E0D";
name = Regular;
paths = (
{
closed = 1;
nodes = (
"150 136 LINE SMOOTH",
"445 475 LINE",
"445 498 LINE",
"357 498 LINE",
"118 224 LINE SMOOTH"
);
}
);
width = 515;
}
);
unicode = 006B;
},
{
glyphname = m;
lastChange = "2016-11-10 11:40:06 +0000";
layers = (
{
components = (
{
name = "_i-dotless";
transform = "{1, 0, 0, 1, 3, 0}";
},
{
name = _m_curve;
transform = "{1, 0, 0, 1, 39, 7}";
}
);
layerId = "7EBE3D46-E53E-419E-A3EC-596DA2EA1E0D";
name = Regular;
paths = (
{
closed = 1;
nodes = (
"694 0 LINE",
"694 265 LINE SMOOTH",
"694 450 OFFCURVE",
"644 511 OFFCURVE",
"538 511 CURVE SMOOTH",
"466 511 OFFCURVE",
"406 477 OFFCURVE",
"394 426 CURVE",
"374 263 LINE",
"423 229 LINE",
"428 299 LINE",
"437 364 OFFCURVE",
"447 427 OFFCURVE",
"522 427 CURVE SMOOTH",
"577 427 OFFCURVE",
"602 386 OFFCURVE",
"602 250 CURVE",
"602 0 LINE"
);
}
);
width = 764;
}
);
unicode = 006D;
},
{
glyphname = r;
lastChange = "2016-11-10 11:40:06 +0000";
layers = (
{
components = (
{
name = "_i-dotless";
transform = "{1, 0, 0, 1, 3, 0}";
}
);
layerId = "7EBE3D46-E53E-419E-A3EC-596DA2EA1E0D";
name = Regular;
paths = (
{
closed = 1;
nodes = (
"370 505 LINE",
"353 510 OFFCURVE",
"334 512 OFFCURVE",
"314 512 CURVE SMOOTH",
"242 512 OFFCURVE",
"179 466 OFFCURVE",
"161 415 CURVE",
"125 296 LINE",
"159 230 LINE",
"166 288 LINE",
"175 353 OFFCURVE",
"223 428 OFFCURVE",
"313 428 CURVE SMOOTH",
"325 428 OFFCURVE",
"336 426 OFFCURVE",
"345 423 CURVE"
);
}
);
width = 440;
}
);
unicode = 0072;
},
{
glyphname = s;
lastChange = "2016-11-10 11:40:06 +0000";
layers = (
{
layerId = "7EBE3D46-E53E-419E-A3EC-596DA2EA1E0D";
name = Regular;
paths = (
{
closed = 1;
nodes = (
"183 72 OFFCURVE",
"117 92 OFFCURVE",
"87 122 CURVE",
"70 38 LINE",
"98 10 OFFCURVE",
"157 -16 OFFCURVE",
"236 -16 CURVE SMOOTH",
"351 -16 OFFCURVE",
"424 47 OFFCURVE",
"424 133 CURVE SMOOTH",
"424 239 OFFCURVE",
"335 272 OFFCURVE",
"256 297 CURVE SMOOTH",
"212 310 OFFCURVE",
"172 323 OFFCURVE",
"172 367 CURVE SMOOTH",
"172 409 OFFCURVE",
"205 426 OFFCURVE",
"257 424 CURVE SMOOTH",
"303 422 OFFCURVE",
"339 411 OFFCURVE",
"384 382 CURVE",
"394 471 LINE",
"367 490 OFFCURVE",
"303 514 OFFCURVE",
"246 514 CURVE SMOOTH",
"146 514 OFFCURVE",
"75 462 OFFCURVE",
"75 375 CURVE SMOOTH",
"75 258 OFFCURVE",
"172 226 OFFCURVE",
"251 205 CURVE",
"297 191 OFFCURVE",
"326 172 OFFCURVE",
"326 133 CURVE SMOOTH",
"326 90 OFFCURVE",
"280 72 OFFCURVE",
"224 72 CURVE SMOOTH"
);
}
);
width = 494;
}
);
unicode = 0073;
},
{
glyphname = t;
lastChange = "2016-11-10 11:40:06 +0000";
layers = (
{
components = (
{
name = _curve_lower;
transform = "{1, 0, 0, 1, 591, -18}";
}
);
layerId = "7EBE3D46-E53E-419E-A3EC-596DA2EA1E0D";
name = Regular;
paths = (
{
closed = 1;
nodes = (
"70 454 LINE",
"70 419 LINE",
"130 419 LINE",
"130 222 LINE SMOOTH",
"130 93 OFFCURVE",
"224 141 OFFCURVE",
"224 222 CURVE SMOOTH",
"224 419 LINE",
"351 419 LINE",
"351 500 LINE",
"224 500 LINE",
"224 590 LINE",
"180 590 LINE"
);
}
);
width = 523;
}
);
unicode = 0074;
},
{
glyphname = one;
lastChange = "2016-11-10 11:40:06 +0000";
layers = (
{
components = (
{
name = _I_small;
transform = "{1, 0, 0, 1, 139, 3}";
},
{
name = _I_small;
transform = "{1, 0, 0, 1, 139, 168}";
},
{
name = _I_small;
transform = "{1, 0, 0, 1, 139, 331}";
},
{
name = _I_small;
transform = "{1, 0, 0, 1, 139, 477}";
},
{
name = "_dash-small";
transform = "{1, 0, 0, 1, 21, -219}";
},
{
name = "_dash-small";
transform = "{1, 0, 0, 1, -62, -219}";
}
);
layerId = "7EBE3D46-E53E-419E-A3EC-596DA2EA1E0D";
name = Regular;
paths = (
{
closed = 1;
nodes = (
"70 579 LINE",
"272 622 LINE",
"272 700 LINE",
"232 700 LINE",
"70 660 LINE"
);
}
);
width = 423;
}
);
unicode = 0031;
},
{
glyphname = three;
lastChange = "2016-11-10 11:40:06 +0000";
layers = (
{
layerId = "7EBE3D46-E53E-419E-A3EC-596DA2EA1E0D";
name = Regular;
paths = (
{
closed = 1;
nodes = (
"469 251 OFFCURVE",
"411 331 OFFCURVE",
"338 354 CURVE",
"408 384 OFFCURVE",
"469 454 OFFCURVE",
"469 522 CURVE SMOOTH",
"469 628 OFFCURVE",
"390 710 OFFCURVE",
"245 710 CURVE SMOOTH",
"199 710 OFFCURVE",
"133 701 OFFCURVE",
"81 665 CURVE",
"99 575 LINE",
"140 596 OFFCURVE",
"188 616 OFFCURVE",
"244 616 CURVE SMOOTH",
"334 616 OFFCURVE",
"367 562 OFFCURVE",
"367 514 CURVE SMOOTH",
"367 464 OFFCURVE",
"330 428 OFFCURVE",
"274 409 CURVE SMOOTH",
"262 404 OFFCURVE",
"191 397 OFFCURVE",
"172 397 CURVE",
"172 310 LINE",
"193 310 OFFCURVE",
"262 304 OFFCURVE",
"274 301 CURVE SMOOTH",
"330 285 OFFCURVE",
"367 240 OFFCURVE",
"367 191 CURVE SMOOTH",
"367 143 OFFCURVE",
"334 79 OFFCURVE",
"244 79 CURVE SMOOTH",
"188 79 OFFCURVE",
"143 88 OFFCURVE",
"88 121 CURVE",
"70 30 LINE",
"136 -13 OFFCURVE",
"199 -12 OFFCURVE",
"245 -12 CURVE SMOOTH",
"390 -12 OFFCURVE",
"469 78 OFFCURVE",
"469 185 CURVE SMOOTH"
);
}
);
width = 539;
}
);
unicode = 0033;
},
{
glyphname = five;
lastChange = "2016-11-10 11:40:06 +0000";
layers = (
{
components = (
{
name = _curve_lower_big;
transform = "{-1, 0, 0, 1, -98, 0}";
},
{
name = _I_small;
transform = "{1, 0, 0, 1, 45, 365}";
},
{
name = _I_small;
transform = "{1, 0, 0, 1, 45, 532}";
},
{
name = _EF_horizontal;
transform = "{1, 0, 0, 1, 64, 307}";
},
{
name = _EF_horizontal;
transform = "{1, 0, 0, 1, -35, 307}";
}
);
layerId = "7EBE3D46-E53E-419E-A3EC-596DA2EA1E0D";
name = Regular;
paths = (
{
closed = 1;
nodes = (
"351 208 LINE",
"351 83 OFFCURVE",
"445 66 OFFCURVE",
"445 223 CURVE SMOOTH",
"445 352 OFFCURVE",
"368 458 OFFCURVE",
"221 458 CURVE SMOOTH",
"165 458 OFFCURVE",
"130 456 OFFCURVE",
"90 456 CURVE",
"108 366 LINE",
"140 366 OFFCURVE",
"195 366 OFFCURVE",
"220 366 CURVE SMOOTH",
"301 366 OFFCURVE",
"351 306 OFFCURVE",
"351 225 CURVE SMOOTH"
);
}
);
width = 515;
}
);
unicode = 0035;
},
{
glyphname = six;
lastChange = "2016-11-10 11:40:06 +0000";
layers = (
{
components = (
{
name = _o_curve;
transform = "{-1, -0, 0, -1, 532, 495}";
},
{
name = _o_curve;
transform = "{1, 0, 0, -1, 26, 495}";
},
{
name = _o_curve;
transform = "{-1, 0, 0, 1, 532, -50}";
}
);
layerId = "7EBE3D46-E53E-419E-A3EC-596DA2EA1E0D";
name = Regular;
paths = (
{
closed = 1;
nodes = (
"175 393 LINE SMOOTH",
"180 456 OFFCURVE",
"197 510 OFFCURVE",
"244 558 CURVE SMOOTH",
"276 590 OFFCURVE",
"336 620 OFFCURVE",
"407 620 CURVE",
"387 705 LINE",
"309 705 OFFCURVE",
"223 674 OFFCURVE",
"177 623 CURVE SMOOTH",
"114 555 OFFCURVE",
"70 451 OFFCURVE",
"70 242 CURVE",
"162 237 LINE"
);
},
{
closed = 1;
nodes = (
"283 461 LINE",
"280 461 OFFCURVE",
"277 461 OFFCURVE",
"274 461 CURVE SMOOTH",
"167 461 OFFCURVE",
"131 380 OFFCURVE",
"131 242 CURVE",
"131 212 OFFCURVE",
"163 175 OFFCURVE",
"163 233 CURVE SMOOTH",
"163 310 OFFCURVE",
"195 371 OFFCURVE",
"275 371 CURVE SMOOTH",
"277 371 OFFCURVE",
"279 371 OFFCURVE",
"281 371 CURVE"
);
}
);
width = 558;
}
);
unicode = 0036;
},
{
glyphname = eight;
lastChange = "2016-11-10 11:40:06 +0000";
layers = (
{
layerId = "7EBE3D46-E53E-419E-A3EC-596DA2EA1E0D";
name = Regular;
paths = (
{
closed = 1;
nodes = (
"80 458 OFFCURVE",
"100 403 OFFCURVE",
"150 380 CURVE",
"109 345 OFFCURVE",
"70 322 OFFCURVE",
"70 199 CURVE SMOOTH",
"70 63 OFFCURVE",
"160 -12 OFFCURVE",
"279 -12 CURVE SMOOTH",
"399 -12 OFFCURVE",
"490 71 OFFCURVE",
"490 199 CURVE SMOOTH",
"490 289 OFFCURVE",
"448 353 OFFCURVE",
"407 378 CURVE",
"448 399 OFFCURVE",
"480 455 OFFCURVE",
"480 505 CURVE SMOOTH",
"480 635 OFFCURVE",
"396 709 OFFCURVE",
"279 709 CURVE SMOOTH",
"152 709 OFFCURVE",
"80 635 OFFCURVE",
"80 505 CURVE SMOOTH"
);
},
{
closed = 1;
nodes = (
"166 297 OFFCURVE",
"213 342 OFFCURVE",
"280 342 CURVE SMOOTH",
"347 342 OFFCURVE",
"392 296 OFFCURVE",
"392 207 CURVE SMOOTH",
"392 199 LINE SMOOTH",
"392 127 OFFCURVE",
"349 78 OFFCURVE",
"280 78 CURVE SMOOTH",
"212 78 OFFCURVE",
"166 126 OFFCURVE",
"166 199 CURVE SMOOTH"
);
},
{
closed = 1;
nodes = (
"176 582 OFFCURVE",
"213 618 OFFCURVE",
"280 618 CURVE SMOOTH",
"347 618 OFFCURVE",
"382 581 OFFCURVE",
"382 512 CURVE SMOOTH",
"382 505 LINE SMOOTH",
"382 453 OFFCURVE",
"349 414 OFFCURVE",
"280 414 CURVE SMOOTH",
"279 414 LINE",
"273 414 LINE SMOOTH",
"210 414 OFFCURVE",
"176 453 OFFCURVE",
"176 505 CURVE SMOOTH"
);
}
);
width = 560;
}
);
unicode = 0038;
},
{
glyphname = asterisk;
lastChange = "2016-11-10 11:40:06 +0000";
layers = (
{
layerId = "7EBE3D46-E53E-419E-A3EC-596DA2EA1E0D";
name = Regular;
paths = (
{
closed = 1;
nodes = (
"260 532 LINE",
"349 582 LINE",
"320 633 LINE",
"235 581 LINE",
"235 683 LINE",
"178 683 LINE",
"178 579 LINE",
"94 633 LINE",
"70 583 LINE",
"158 533 LINE",
"70 483 LINE",
"97 434 LINE",
"183 485 LINE",
"183 383 LINE",
"240 383 LINE",
"240 485 LINE",
"325 434 LINE",
"348 484 LINE"
);
}
);
width = 419;
}
);
unicode = 002A;
},
{
glyphname = bullet;
lastChange = "2016-11-10 11:40:06 +0000";
layers = (
{
layerId = "7EBE3D46-E53E-419E-A3EC-596DA2EA1E0D";
name = Regular;
paths = (
{
closed = 1;
nodes = (
"300 190 OFFCURVE",
"365 251 OFFCURVE",
"365 326 CURVE SMOOTH",
"365 403 OFFCURVE",
"300 464 OFFCURVE",
"218 464 CURVE SMOOTH",
"137 464 OFFCURVE",
"70 403 OFFCURVE",
"70 326 CURVE SMOOTH",
"70 251 OFFCURVE",
"137 190 OFFCURVE",
"218 190 CURVE SMOOTH"
);
}
);
width = 435;
}
);
unicode = 2022;
},
{
glyphname = numbersign;
lastChange = "2016-11-10 11:40:06 +0000";
layers = (
{
layerId = "7EBE3D46-E53E-419E-A3EC-596DA2EA1E0D";
name = Regular;
paths = (
{
closed = 1;
nodes = (
"605 287 LINE",
"502 287 LINE",
"519 454 LINE",
"627 454 LINE",
"634 545 LINE",
"529 545 LINE",
"544 700 LINE",
"454 700 LINE",
"440 545 LINE",
"312 545 LINE",
"327 700 LINE",
"238 700 LINE",
"224 545 LINE",
"104 545 LINE",
"97 454 LINE",
"213 454 LINE",
"197 287 LINE",
"76 287 LINE",
"70 197 LINE",
"188 197 LINE",
"168 0 LINE",
"257 0 LINE",
"277 197 LINE",
"404 197 LINE",
"384 0 LINE",
"473 0 LINE",
"493 197 LINE",
"600 197 LINE"
);
},
{
closed = 1;
nodes = (
"286 287 LINE",
"303 454 LINE",
"430 454 LINE",
"413 287 LINE"
);
}
);
width = 704;
}
);
unicode = 0023;
},
{
glyphname = braceleft;
lastChange = "2016-11-10 11:40:06 +0000";
layers = (
{
layerId = "7EBE3D46-E53E-419E-A3EC-596DA2EA1E0D";
name = Regular;
paths = (
{
closed = 1;
nodes = (
"439 -105 LINE",
"410 -105 LINE SMOOTH",
"336 -105 OFFCURVE",
"302 -68 OFFCURVE",
"309 8 CURVE",
"309 153 LINE SMOOTH",
"309 235 OFFCURVE",
"274 279 OFFCURVE",
"205 285 CURVE",
"274 296 OFFCURVE",
"308 340 OFFCURVE",
"308 420 CURVE SMOOTH",
"308 511 LINE",
"301 585 OFFCURVE",
"335 621 OFFCURVE",
"410 621 CURVE SMOOTH",
"439 621 LINE",
"439 713 LINE",
"393 713 LINE SMOOTH",
"257 713 OFFCURVE",
"207 643 OFFCURVE",
"207 533 CURVE SMOOTH",
"207 429 LINE SMOOTH",
"207 361 OFFCURVE",
"187 331 OFFCURVE",
"91 331 CURVE SMOOTH",
"70 331 LINE",
"70 241 LINE",
"91 241 LINE SMOOTH",
"181 241 OFFCURVE",
"207 204 OFFCURVE",
"207 141 CURVE SMOOTH",
"207 -17 LINE SMOOTH",
"207 -136 OFFCURVE",
"269 -195 OFFCURVE",
"393 -195 CURVE SMOOTH",
"439 -195 LINE"
);
}
);
width = 509;
}
);
unicode = 007B;
},
{
glyphname = braceright;
lastChange = "2016-11-10 11:40:06 +0000";
layers = (
{
layerId = "7EBE3D46-E53E-419E-A3EC-596DA2EA1E0D";
name = Regular;
paths = (
{
closed = 1;
nodes = (
"116 -194 LINE SMOOTH",
"240 -194 OFFCURVE",
"302 -135 OFFCURVE",
"302 -16 CURVE SMOOTH",
"302 142 LINE SMOOTH",
"302 205 OFFCURVE",
"328 242 OFFCURVE",
"418 242 CURVE SMOOTH",
"439 242 LINE",
"439 332 LINE",
"418 332 LINE SMOOTH",
"322 332 OFFCURVE",
"302 362 OFFCURVE",
"302 430 CURVE SMOOTH",
"302 534 LINE SMOOTH",
"302 644 OFFCURVE",
"252 714 OFFCURVE",
"116 714 CURVE SMOOTH",
"70 714 LINE",
"70 622 LINE",
"99 622 LINE SMOOTH",
"174 622 OFFCURVE",
"208 586 OFFCURVE",
"201 512 CURVE",
"201 421 LINE SMOOTH",
"201 341 OFFCURVE",
"235 297 OFFCURVE",
"304 286 CURVE",
"235 280 OFFCURVE",
"200 236 OFFCURVE",
"200 154 CURVE SMOOTH",
"200 9 LINE",
"207 -67 OFFCURVE",
"173 -104 OFFCURVE",
"99 -104 CURVE SMOOTH",
"70 -104 LINE",
"70 -194 LINE"
);
}
);
width = 509;
}
);
unicode = 007D;
},
{
glyphname = currency;
lastChange = "2016-11-10 11:40:06 +0000";
layers = (
{
layerId = "7EBE3D46-E53E-419E-A3EC-596DA2EA1E0D";
name = Regular;
paths = (
{
closed = 1;
nodes = (
"142 578 LINE",
"70 507 LINE",
"146 429 LINE",
"144 424 LINE",
"137 407 OFFCURVE",
"133 389 OFFCURVE",
"133 369 CURVE SMOOTH",
"133 350 OFFCURVE",
"137 332 OFFCURVE",
"144 314 CURVE",
"145 311 OFFCURVE",
"145 309 OFFCURVE",
"146 308 CURVE",
"72 233 LINE",
"144 162 LINE",
"222 239 LINE",
"240 232 OFFCURVE",
"259 229 OFFCURVE",
"279 229 CURVE SMOOTH",
"300 229 OFFCURVE",
"319 232 OFFCURVE",
"337 239 CURVE",
"419 157 LINE",
"491 229 LINE",
"411 308 LINE",
"412 310 OFFCURVE",
"413 312 OFFCURVE",
"415 314 CURVE",
"423 332 OFFCURVE",
"427 350 OFFCURVE",
"427 369 CURVE SMOOTH",
"427 389 OFFCURVE",
"423 407 OFFCURVE",
"415 424 CURVE",
"413 425 OFFCURVE",
"413 427 OFFCURVE",
"412 429 CURVE",
"495 513 LINE",
"423 584 LINE",
"337 498 LINE",
"337 499 LINE",
"319 507 OFFCURVE",
"300 510 OFFCURVE",
"279 510 CURVE SMOOTH",
"259 510 OFFCURVE",
"240 507 OFFCURVE",
"222 499 CURVE",
"221 498 LINE"
);
},
{
closed = 1;
nodes = (
"326 438 OFFCURVE",
"363 387 OFFCURVE",
"342 342 CURVE",
"332 318 OFFCURVE",
"308 301 OFFCURVE",
"279 301 CURVE SMOOTH",
"260 301 OFFCURVE",
"243 306 OFFCURVE",
"230 320 CURVE SMOOTH",
"217 333 OFFCURVE",
"211 350 OFFCURVE",
"211 369 CURVE SMOOTH",
"211 378 OFFCURVE",
"213 387 OFFCURVE",
"217 395 CURVE SMOOTH",
"229 422 OFFCURVE",
"251 438 OFFCURVE",
"279 438 CURVE SMOOTH"
);
}
);
width = 565;
}
);
unicode = 00A4;
},
{
glyphname = infinity;
lastChange = "2016-11-10 11:40:06 +0000";
layers = (
{
layerId = "7EBE3D46-E53E-419E-A3EC-596DA2EA1E0D";
name = Regular;
paths = (
{
closed = 1;
nodes = (
"341 156 OFFCURVE",
"411 193 OFFCURVE",
"434 243 CURVE",
"458 193 OFFCURVE",
"486 153 OFFCURVE",
"588 152 CURVE SMOOTH",
"724 151 OFFCURVE",
"800 240 OFFCURVE",
"801 359 CURVE SMOOTH",
"802 479 OFFCURVE",
"719 572 OFFCURVE",
"591 572 CURVE SMOOTH",
"522 572 OFFCURVE",
"458 531 OFFCURVE",
"433 490 CURVE",
"412 531 OFFCURVE",
"346 572 OFFCURVE",
"275 572 CURVE SMOOTH",
"145 572 OFFCURVE",
"71 481 OFFCURVE",
"70 364 CURVE SMOOTH",
"69 237 OFFCURVE",
"143 156 OFFCURVE",
"273 156 CURVE SMOOTH"
);
},
{
closed = 1;
nodes = (
"512 249 OFFCURVE",
"467 296 OFFCURVE",
"468 363 CURVE SMOOTH",
"468 430 OFFCURVE",
"515 474 OFFCURVE",
"583 474 CURVE SMOOTH",
"591 474 LINE SMOOTH",
"663 473 OFFCURVE",
"711 430 OFFCURVE",
"711 361 CURVE SMOOTH",
"710 293 OFFCURVE",
"662 247 OFFCURVE",
"589 248 CURVE SMOOTH"
);
},
{
closed = 1;
nodes = (
"196 250 OFFCURVE",
"160 298 OFFCURVE",
"161 365 CURVE SMOOTH",
"161 432 OFFCURVE",
"199 477 OFFCURVE",
"268 476 CURVE SMOOTH",
"275 476 LINE SMOOTH",
"348 476 OFFCURVE",
"396 432 OFFCURVE",
"396 363 CURVE SMOOTH",
"396 362 LINE",
"396 356 LINE SMOOTH",
"395 293 OFFCURVE",
"346 250 OFFCURVE",
"273 250 CURVE SMOOTH"
);
}
);
width = 871;
}
);
unicode = 221E;
},
{
glyphname = radical;
lastChange = "2016-11-10 11:40:06 +0000";
layers = (
{
components = (
{
name = _EF_horizontal;
transform = "{1, 0, 0, 1, 324, 308}";
},
{
name = _backslash;
transform = "{-1, 0, 0, 1, 595, 1}";
}
);
layerId = "7EBE3D46-E53E-419E-A3EC-596DA2EA1E0D";
name = Regular;
paths = (
{
closed = 1;
nodes = (
"70 395 LINE SMOOTH",
"229 -86 LINE",
"277 -86 LINE",
"304 3 LINE",
"162 429 LINE SMOOTH",
"70 429 LINE"
);
}
);
width = 730;
}
);
unicode = 221A;
},
{
glyphname = summation;
lastChange = "2016-11-10 11:40:06 +0000";
layers = (
{
components = (
{
name = _EF_horizontal;
transform = "{1, 0, 0, 1, 149, 313}";
},
{
name = _EF_horizontal;
transform = "{1, 0, 0, 1, -1, 313}";
},
{
name = _X;
transform = "{-1, 0, 0, 1, 625, 8}";
},
{
name = _EF_horizontal;
transform = "{1, 0, -0, -1, 149, 392}";
},
{
name = _EF_horizontal;
transform = "{1, 0, -0, -1, -1, 392}";
},
{
name = _X;
transform = "{-1, 0, -0, -1, 625, 697}";
}
);
layerId = "7EBE3D46-E53E-419E-A3EC-596DA2EA1E0D";
name = Regular;
paths = (
{
closed = 1;
nodes = (
"378 352 LINE",
"332 281 LINE",
"333 424 LINE"
);
}
);
width = 555;
}
);
unicode = 2211;
},
{
glyphname = at;
lastChange = "2016-11-10 12:04:17 +0000";
layers = (
{
components = (
{
name = _curve_b;
transform = "{-1, 0, -0, -1, 735, 503}";
},
{
name = _I_small;
transform = "{1, 0, 0, 1, 567, 146}";
},
{
name = _I_small;
transform = "{1, 0, 0, 1, 567, 275}";
},
{
name = _I_small;
transform = "{1, 0, 0, 1, 567, 333}";
},
{
name = _I_small;
transform = "{1, 0, 0, 1, 567, 87}";
}
);
layerId = "7EBE3D46-E53E-419E-A3EC-596DA2EA1E0D";
name = Regular;
paths = (
{
closed = 1;
nodes = (
"607 97 LINE",
"607 -78 OFFCURVE",
"773 -70 OFFCURVE",
"836 17 CURVE SMOOTH",
"882 81 OFFCURVE",
"913 158 OFFCURVE",
"913 268 CURVE SMOOTH",
"913 560 OFFCURVE",
"725 690 OFFCURVE",
"491 690 CURVE SMOOTH",
"259 690 OFFCURVE",
"70 553 OFFCURVE",
"70 268 CURVE SMOOTH",
"70 -17 OFFCURVE",
"259 -153 OFFCURVE",
"491 -153 CURVE SMOOTH",
"530 -153 OFFCURVE",
"569 -148 OFFCURVE",
"605 -138 CURVE",
"571 -53 LINE SMOOTH",
"543 -60 OFFCURVE",
"520 -64 OFFCURVE",
"490 -64 CURVE SMOOTH",
"301 -64 OFFCURVE",
"163 48 OFFCURVE",
"163 273 CURVE SMOOTH",
"163 500 OFFCURVE",
"301 604 OFFCURVE",
"490 604 CURVE SMOOTH",
"679 604 OFFCURVE",
"817 500 OFFCURVE",
"817 273 CURVE SMOOTH",
"817 214 OFFCURVE",
"806 154 OFFCURVE",
"782 106 CURVE SMOOTH",
"754 52 OFFCURVE",
"697 41 OFFCURVE",
"700 97 CURVE"
);
}
);
width = 983;
}
);
unicode = 0040;
},
{
glyphname = ampersand;
lastChange = "2016-11-10 12:04:17 +0000";
layers = (
{
layerId = "7EBE3D46-E53E-419E-A3EC-596DA2EA1E0D";
name = Regular;
paths = (
{
closed = 1;
nodes = (
"164 257 OFFCURVE",
"197 296 OFFCURVE",
"245 328 CURVE",
"408 120 LINE",
"374 87 OFFCURVE",
"337 71 OFFCURVE",
"292 71 CURVE SMOOTH",
"213 71 OFFCURVE",
"164 120 OFFCURVE",
"164 194 CURVE SMOOTH"
);
},
{
closed = 1;
nodes = (
"389 498 OFFCURVE",
"341 464 OFFCURVE",
"280 432 CURVE",
"266 450 LINE SMOOTH",
"235 489 OFFCURVE",
"222 517 OFFCURVE",
"222 556 CURVE SMOOTH",
"222 605 OFFCURVE",
"252 643 OFFCURVE",
"308 643 CURVE SMOOTH",
"357 644 OFFCURVE",
"389 613 OFFCURVE",
"389 561 CURVE SMOOTH"
);
},
{
closed = 1;
nodes = (
"609 21 LINE",
"524 124 LINE",
"557 184 OFFCURVE",
"581 257 OFFCURVE",
"581 312 CURVE",
"490 345 LINE",
"490 282 OFFCURVE",
"475 248 OFFCURVE",
"460 207 CURVE",
"326 374 LINE",
"403 419 OFFCURVE",
"481 464 OFFCURVE",
"481 570 CURVE SMOOTH",
"481 651 OFFCURVE",
"423 721 OFFCURVE",
"311 721 CURVE SMOOTH",
"194 721 OFFCURVE",
"129 647 OFFCURVE",
"129 547 CURVE SMOOTH",
"129 500 OFFCURVE",
"147 450 OFFCURVE",
"187 402 CURVE",
"198 386 LINE",
"131 343 OFFCURVE",
"70 291 OFFCURVE",
"70 183 CURVE SMOOTH",
"70 72 OFFCURVE",
"146 -7 OFFCURVE",
"279 -7 CURVE SMOOTH",
"350 -7 OFFCURVE",
"409 16 OFFCURVE",
"458 57 CURVE",
"504 0 LINE",
"609 0 LINE"
);
}
);
width = 679;
}
);
unicode = 0026;
},
{
glyphname = paragraph;
lastChange = "2016-11-10 12:04:17 +0000";
layers = (
{
layerId = "7EBE3D46-E53E-419E-A3EC-596DA2EA1E0D";
name = Regular;
paths = (
{
closed = 1;
nodes = (
"137 276 OFFCURVE",
"70 372 OFFCURVE",
"70 489 CURVE SMOOTH",
"70 606 OFFCURVE",
"154 699 OFFCURVE",
"343 699 CURVE SMOOTH",
"521 699 LINE",
"521 1 LINE",
"429 1 LINE",
"429 627 LINE",
"345 627 LINE",
"345 276 LINE"
);
}
);
width = 591;
}
);
unicode = 00B6;
},
{
glyphname = section;
lastChange = "2016-11-10 12:04:17 +0000";
layers = (
{
layerId = "7EBE3D46-E53E-419E-A3EC-596DA2EA1E0D";
name = Regular;
paths = (
{
closed = 1;
nodes = (
"505 93 OFFCURVE",
"538 153 OFFCURVE",
"538 212 CURVE SMOOTH",
"538 405 OFFCURVE",
"225 449 OFFCURVE",
"225 549 CURVE SMOOTH",
"225 571 OFFCURVE",
"232 581 OFFCURVE",
"253 595 CURVE SMOOTH",
"273 609 OFFCURVE",
"304 619 OFFCURVE",
"351 619 CURVE SMOOTH",
"393 619 OFFCURVE",
"431 614 OFFCURVE",
"478 602 CURVE",
"478 695 LINE",
"438 703 OFFCURVE",
"395 708 OFFCURVE",
"353 708 CURVE SMOOTH",
"175 708 OFFCURVE",
"126 610 OFFCURVE",
"126 540 CURVE SMOOTH",
"126 500 OFFCURVE",
"146 470 OFFCURVE",
"167 453 CURVE",
"103 416 OFFCURVE",
"70 349 OFFCURVE",
"70 295 CURVE SMOOTH",
"70 103 OFFCURVE",
"386 56 OFFCURVE",
"386 -38 CURVE SMOOTH",
"386 -93 OFFCURVE",
"341 -114 OFFCURVE",
"249 -114 CURVE SMOOTH",
"188 -114 OFFCURVE",
"143 -105 OFFCURVE",
"88 -88 CURVE",
"88 -187 LINE",
"139 -199 OFFCURVE",
"177 -206 OFFCURVE",
"253 -206 CURVE SMOOTH",
"358 -206 OFFCURVE",
"484 -154 OFFCURVE",
"484 -32 CURVE SMOOTH",
"484 3 OFFCURVE",
"465 35 OFFCURVE",
"442 54 CURVE"
);
},
{
closed = 1;
nodes = (
"281 164 OFFCURVE",
"164 214 OFFCURVE",
"164 303 CURVE SMOOTH",
"164 333 OFFCURVE",
"188 381 OFFCURVE",
"231 402 CURVE",
"323 341 OFFCURVE",
"445 294 OFFCURVE",
"445 204 CURVE SMOOTH",
"445 173 OFFCURVE",
"421 126 OFFCURVE",
"376 103 CURVE"
);
}
);
width = 608;
}
);
unicode = 00A7;
},
{
glyphname = degree;
lastChange = "2016-11-10 12:04:17 +0000";
layers = (
{
layerId = "7EBE3D46-E53E-419E-A3EC-596DA2EA1E0D";
name = Regular;
paths = (
{
closed = 1;
nodes = (
"293 427 OFFCURVE",
"357 491 OFFCURVE",
"357 571 CURVE SMOOTH",
"357 650 OFFCURVE",
"293 714 OFFCURVE",
"214 714 CURVE SMOOTH",
"134 714 OFFCURVE",
"70 650 OFFCURVE",
"70 571 CURVE SMOOTH",
"70 491 OFFCURVE",
"134 427 OFFCURVE",
"214 427 CURVE SMOOTH"
);
},
{
closed = 1;
nodes = (
"171 493 OFFCURVE",
"137 528 OFFCURVE",
"137 572 CURVE SMOOTH",
"137 614 OFFCURVE",
"171 649 OFFCURVE",
"215 649 CURVE SMOOTH",
"258 649 OFFCURVE",
"293 614 OFFCURVE",
"293 572 CURVE SMOOTH",
"293 528 OFFCURVE",
"258 493 OFFCURVE",
"215 493 CURVE SMOOTH"
);
}
);
width = 427;
}
);
unicode = 00B0;
},
{
glyphname = _one.001;
lastChange = "2016-11-09 19:22:23 +0000";
layers = (
{
components = (
{
name = _I_small;
transform = "{1, 0, 0, 1, 117, 3}";
},
{
name = _I_small;
transform = "{1, 0, 0, 1, 117, 168}";
},
{
name = _I_small;
transform = "{1, 0, 0, 1, 117, 331}";
},
{
name = _I_small;
transform = "{1, 0, 0, 1, 117, 477}";
},
{
name = "_dash-small";
transform = "{1, 0, 0, 1, -1, -219}";
},
{
name = "_dash-small";
transform = "{1, 0, 0, 1, -84, -219}";
}
);
layerId = "7EBE3D46-E53E-419E-A3EC-596DA2EA1E0D";
name = Regular;
paths = (
{
closed = 1;
nodes = (
"48 579 LINE",
"250 622 LINE",
"250 700 LINE",
"210 700 LINE",
"48 660 LINE"
);
}
);
width = 600;
}
);
},
{
glyphname = _slash;
lastChange = "2016-11-08 11:49:21 +0000";
layers = (
{
layerId = "7EBE3D46-E53E-419E-A3EC-596DA2EA1E0D";
name = Regular;
paths = (
{
closed = 1;
nodes = (
"302 700 LINE SMOOTH",
"73 44 LINE",
"73 1 LINE",
"163 1 LINE",
"334 515 LINE SMOOTH",
"334 700 LINE"
);
}
);
width = 600;
}
);
},
{
glyphname = _curve_B;
lastChange = "2016-11-08 11:35:57 +0000";
layers = (
{
layerId = "7EBE3D46-E53E-419E-A3EC-596DA2EA1E0D";
name = Regular;
paths = (
{
closed = 1;
nodes = (
"71 334 LINE",
"82 334 OFFCURVE",
"206 334 OFFCURVE",
"217 334 CURVE SMOOTH",
"377 336 OFFCURVE",
"432 372 OFFCURVE",
"432 508 CURVE SMOOTH",
"432 620 OFFCURVE",
"361 702 OFFCURVE",
"223 701 CURVE SMOOTH",
"74 700 LINE",
"89 619 LINE",
"204 619 LINE SMOOTH",
"292 619 OFFCURVE",
"328 580 OFFCURVE",
"328 507 CURVE SMOOTH",
"328 433 OFFCURVE",
"306 383 OFFCURVE",
"221 383 CURVE SMOOTH",
"82 383 LINE"
);
}
);
width = 469;
}
);
},
{
glyphname = _curve_b;
lastChange = "2016-11-09 15:55:04 +0000";
layers = (
{
layerId = "7EBE3D46-E53E-419E-A3EC-596DA2EA1E0D";
name = Regular;
paths = (
{
closed = 1;
nodes = (
"127 40 LINE",
"159 1 OFFCURVE",
"208 -11 OFFCURVE",
"254 -11 CURVE SMOOTH",
"408 -11 OFFCURVE",
"468 108 OFFCURVE",
"468 222 CURVE SMOOTH",
"468 292 LINE",
"466 418 OFFCURVE",
"389 511 OFFCURVE",
"275 511 CURVE SMOOTH",
"190 511 OFFCURVE",
"145 467 OFFCURVE",
"127 416 CURVE"
);
},
{
closed = 1;
nodes = (
"376 232 LINE SMOOTH",
"376 151 OFFCURVE",
"348 74 OFFCURVE",
"255 74 CURVE SMOOTH",
"167 74 OFFCURVE",
"127 112 OFFCURVE",
"127 112 CURVE",
"127 222 LINE SMOOTH",
"127 293 OFFCURVE",
"135 427 OFFCURVE",
"274 427 CURVE SMOOTH",
"341 427 OFFCURVE",
"376 360 OFFCURVE",
"376 283 CURVE SMOOTH"
);
}
);
width = 494;
}
);
},
{
glyphname = _C_curve;
lastChange = "2016-11-09 15:51:24 +0000";
layers = (
{
layerId = "7EBE3D46-E53E-419E-A3EC-596DA2EA1E0D";
name = Regular;
paths = (
{
closed = 1;
nodes = (
"125 362 LINE SMOOTH",
"125 511 OFFCURVE",
"186 573 OFFCURVE",
"266 573 CURVE SMOOTH",
"315 573 OFFCURVE",
"362 563 OFFCURVE",
"410 517 CURVE",
"431 609 LINE",
"391 646 OFFCURVE",
"347 665 OFFCURVE",
"268 665 CURVE SMOOTH",
"141 665 OFFCURVE",
"31 588 OFFCURVE",
"31 371 CURVE SMOOTH",
"31 282 LINE SMOOTH",
"31 153 OFFCURVE",
"125 201 OFFCURVE",
"125 282 CURVE SMOOTH"
);
}
);
width = 506;
}
);
},
{
glyphname = _I_small;
lastChange = "2016-11-09 15:55:32 +0000";
layers = (
{
layerId = "7EBE3D46-E53E-419E-A3EC-596DA2EA1E0D";
name = Regular;
paths = (
{
closed = 1;
nodes = (
"40 1 LINE",
"133 1 LINE",
"133 168 LINE",
"40 168 LINE"
);
}
);
width = 469;
}
);
},
{
glyphname = _curve_generic;
lastChange = "2016-11-09 15:54:07 +0000";
layers = (
{
layerId = "7EBE3D46-E53E-419E-A3EC-596DA2EA1E0D";
name = Regular;
paths = (
{
closed = 1;
nodes = (
"357 411 OFFCURVE",
"450 373 OFFCURVE",
"450 509 CURVE SMOOTH",
"450 621 OFFCURVE",
"390 703 OFFCURVE",
"252 702 CURVE SMOOTH",
"103 701 LINE",
"118 620 LINE",
"233 620 LINE SMOOTH",
"321 620 OFFCURVE",
"357 581 OFFCURVE",
"357 508 CURVE SMOOTH"
);
}
);
width = 600;
}
);
},
{
glyphname = _EF_horizontal;
lastChange = "2016-11-09 15:54:11 +0000";
layers = (
{
layerId = "7EBE3D46-E53E-419E-A3EC-596DA2EA1E0D";
name = Regular;
paths = (
{
closed = 1;
nodes = (
"134 312 LINE",
"336 312 LINE",
"336 393 LINE",
"134 393 LINE"
);
}
);
width = 600;
}
);
},
{
glyphname = "_dash-small";
lastChange = "2016-11-08 13:09:20 +0000";
layers = (
{
layerId = "7EBE3D46-E53E-419E-A3EC-596DA2EA1E0D";
name = Regular;
paths = (
{
closed = 1;
nodes = (
"170 222 LINE",
"332 222 LINE",
"332 300 LINE",
"170 300 LINE"
);
}
);
width = 600;
}
);
},
{
glyphname = _dot;
lastChange = "2016-11-08 13:57:22 +0000";
layers = (
{
layerId = "7EBE3D46-E53E-419E-A3EC-596DA2EA1E0D";
name = Regular;
paths = (
{
closed = 1;
nodes = (
"179 589 OFFCURVE",
"217 625 OFFCURVE",
"217 669 CURVE SMOOTH",
"217 714 OFFCURVE",
"179 750 OFFCURVE",
"131 750 CURVE SMOOTH",
"83 750 OFFCURVE",
"44 714 OFFCURVE",
"44 669 CURVE SMOOTH",
"44 625 OFFCURVE",
"83 589 OFFCURVE",
"131 589 CURVE SMOOTH"
);
}
);
width = 260;
}
);
},
{
glyphname = _hmn;
lastChange = "2016-11-09 13:03:05 +0000";
layers = (
{
layerId = "7EBE3D46-E53E-419E-A3EC-596DA2EA1E0D";
name = Regular;
paths = (
{
closed = 1;
nodes = (
"473 1 LINE",
"473 293 LINE",
"471 419 OFFCURVE",
"414 512 OFFCURVE",
"287 512 CURVE SMOOTH",
"215 512 OFFCURVE",
"152 466 OFFCURVE",
"134 415 CURVE",
"98 296 LINE",
"132 230 LINE",
"139 288 LINE",
"148 353 OFFCURVE",
"196 428 OFFCURVE",
"286 428 CURVE SMOOTH",
"366 428 OFFCURVE",
"381 359 OFFCURVE",
"381 284 CURVE SMOOTH",
"381 1 LINE"
);
}
);
width = 600;
}
);
},
{
glyphname = _w_slash;
lastChange = "2016-11-09 15:52:56 +0000";
layers = (
{
layerId = "7EBE3D46-E53E-419E-A3EC-596DA2EA1E0D";
name = Regular;
paths = (
{
closed = 1;
nodes = (
"264 245 LINE SMOOTH",
"129 699 LINE",
"39 699 LINE",
"39 656 LINE",
"232 0 LINE SMOOTH",
"264 0 LINE"
);
}
);
width = 600;
}
);
},
{
glyphname = _w_slash_2;
lastChange = "2016-11-09 15:53:14 +0000";
layers = (
{
layerId = "7EBE3D46-E53E-419E-A3EC-596DA2EA1E0D";
name = Regular;
paths = (
{
closed = 1;
nodes = (
"258 1 LINE SMOOTH",
"406 542 LINE",
"390 700 LINE SMOOTH",
"361 700 LINE",
"226 246 LINE SMOOTH",
"226 1 LINE"
);
}
);
width = 600;
}
);
},
{
glyphname = _X;
lastChange = "2016-11-09 13:12:18 +0000";
layers = (
{
layerId = "7EBE3D46-E53E-419E-A3EC-596DA2EA1E0D";
name = Regular;
paths = (
{
closed = 1;
nodes = (
"315 289 LINE SMOOTH",
"555 675 LINE",
"555 698 LINE",
"467 698 LINE",
"283 401 LINE SMOOTH",
"283 289 LINE"
);
}
);
width = 600;
}
);
},
{
glyphname = _curve_lower;
lastChange = "2016-11-09 15:53:23 +0000";
layers = (
{
layerId = "7EBE3D46-E53E-419E-A3EC-596DA2EA1E0D";
name = Regular;
paths = (
{
closed = 1;
nodes = (
"-460 348 LINE",
"-460 189 LINE SMOOTH",
"-460 83 OFFCURVE",
"-396 13 OFFCURVE",
"-287 11 CURVE SMOOTH",
"-213 10 OFFCURVE",
"-161 42 OFFCURVE",
"-138 60 CURVE",
"-160 138 LINE",
"-187 117 OFFCURVE",
"-223 99 OFFCURVE",
"-266 99 CURVE SMOOTH",
"-347 99 OFFCURVE",
"-367 160 OFFCURVE",
"-367 241 CURVE SMOOTH",
"-367 348 LINE"
);
}
);
width = 476;
}
);
},
{
glyphname = _curve_lower_big;
lastChange = "2016-11-08 16:15:15 +0000";
layers = (
{
layerId = "7EBE3D46-E53E-419E-A3EC-596DA2EA1E0D";
name = Regular;
paths = (
{
closed = 1;
nodes = (
"-449 239 LINE",
"-449 364 OFFCURVE",
"-543 381 OFFCURVE",
"-543 224 CURVE SMOOTH",
"-543 95 OFFCURVE",
"-466 -11 OFFCURVE",
"-319 -11 CURVE SMOOTH",
"-243 -11 OFFCURVE",
"-196 11 OFFCURVE",
"-168 34 CURVE",
"-186 119 LINE",
"-232 90 OFFCURVE",
"-273 81 OFFCURVE",
"-318 81 CURVE SMOOTH",
"-399 81 OFFCURVE",
"-449 141 OFFCURVE",
"-449 222 CURVE SMOOTH"
);
}
);
width = 526;
}
);
},
{
glyphname = _o_curve;
lastChange = "2016-11-09 19:16:12 +0000";
layers = (
{
layerId = "7EBE3D46-E53E-419E-A3EC-596DA2EA1E0D";
name = Regular;
paths = (
{
closed = 1;
nodes = (
"257 511 LINE",
"254 511 OFFCURVE",
"251 511 OFFCURVE",
"248 511 CURVE SMOOTH",
"108 511 OFFCURVE",
"46 408 OFFCURVE",
"44 282 CURVE SMOOTH",
"44 281 OFFCURVE",
"44 268 OFFCURVE",
"44 251 CURVE",
"137 251 LINE",
"137 265 OFFCURVE",
"137 282 OFFCURVE",
"137 283 CURVE SMOOTH",
"137 360 OFFCURVE",
"169 421 OFFCURVE",
"249 421 CURVE SMOOTH",
"251 421 OFFCURVE",
"253 421 OFFCURVE",
"255 421 CURVE"
);
}
);
width = 900;
}
);
},
{
glyphname = _M;
lastChange = "2016-11-08 16:45:55 +0000";
layers = (
{
layerId = "7EBE3D46-E53E-419E-A3EC-596DA2EA1E0D";
name = Regular;
paths = (
{
closed = 1;
nodes = (
"364 272 LINE SMOOTH",
"593 598 LINE",
"593 708 LINE",
"559 708 LINE",
"332 384 LINE SMOOTH",
"332 272 LINE"
);
}
);
width = 642;
}
);
},
{
glyphname = _O;
lastChange = "2016-11-09 08:07:28 +0000";
layers = (
{
layerId = "7EBE3D46-E53E-419E-A3EC-596DA2EA1E0D";
name = Regular;
paths = (
{
closed = 1;
nodes = (
"300 706 LINE",
"284 707 LINE",
"132 707 OFFCURVE",
"50 583 OFFCURVE",
"50 421 CURVE SMOOTH",
"50 420 OFFCURVE",
"50 318 OFFCURVE",
"50 301 CURVE",
"143 313 LINE",
"143 327 OFFCURVE",
"143 412 OFFCURVE",
"143 413 CURVE SMOOTH",
"143 536 OFFCURVE",
"187 614 OFFCURVE",
"285 614 CURVE",
"293 614 LINE"
);
}
);
width = 900;
}
);
},
{
glyphname = _x;
lastChange = "2016-11-09 17:07:01 +0000";
layers = (
{
layerId = "7EBE3D46-E53E-419E-A3EC-596DA2EA1E0D";
name = Regular;
paths = (
{
closed = 1;
nodes = (
"358 202 LINE SMOOTH",
"505 1 LINE",
"592 1 LINE",
"592 24 LINE",
"390 311 LINE SMOOTH",
"358 311 LINE"
);
}
);
width = 900;
}
);
},
{
glyphname = _w_small_slash;
lastChange = "2016-11-09 15:54:35 +0000";
layers = (
{
layerId = "7EBE3D46-E53E-419E-A3EC-596DA2EA1E0D";
name = Regular;
paths = (
{
closed = 1;
nodes = (
"227 160 LINE SMOOTH",
"108 499 LINE",
"30 499 LINE",
"30 476 LINE",
"195 2 LINE SMOOTH",
"227 2 LINE"
);
}
);
width = 900;
}
);
},
{
glyphname = _w_small_slash_2;
lastChange = "2016-11-09 15:53:44 +0000";
layers = (
{
layerId = "7EBE3D46-E53E-419E-A3EC-596DA2EA1E0D";
name = Regular;
paths = (
{
closed = 1;
nodes = (
"399 160 LINE SMOOTH",
"280 499 LINE",
"249 499 LINE",
"249 326 LINE",
"367 2 LINE SMOOTH",
"399 2 LINE"
);
}
);
width = 900;
}
);
},
{
glyphname = _y;
lastChange = "2016-11-09 15:55:55 +0000";
layers = (
{
layerId = "7EBE3D46-E53E-419E-A3EC-596DA2EA1E0D";
name = Regular;
paths = (
{
closed = 1;
nodes = (
"334 2 LINE SMOOTH",
"529 476 LINE",
"529 499 LINE",
"441 499 LINE",
"302 150 LINE SMOOTH",
"302 2 LINE"
);
}
);
width = 900;
}
);
},
{
glyphname = _D;
lastChange = "2016-11-08 19:17:58 +0000";
layers = (
{
layerId = "7EBE3D46-E53E-419E-A3EC-596DA2EA1E0D";
name = Regular;
paths = (
{
closed = 1;
nodes = (
"409 328 LINE",
"409 265 OFFCURVE",
"502 259 OFFCURVE",
"502 335 CURVE",
"502 419 LINE",
"502 575 OFFCURVE",
"431 703 OFFCURVE",
"244 702 CURVE SMOOTH",
"115 701 LINE",
"130 620 LINE",
"245 620 LINE SMOOTH",
"370 620 OFFCURVE",
"409 537 OFFCURVE",
"409 418 CURVE"
);
}
);
width = 533;
}
);
},
{
glyphname = _qtail;
lastChange = "2016-11-09 15:29:32 +0000";
layers = (
{
anchors = (
{
name = _tailq;
position = "{467, 92}";
}
);
layerId = "7EBE3D46-E53E-419E-A3EC-596DA2EA1E0D";
name = Regular;
paths = (
{
closed = 1;
nodes = (
"320 205 LINE SMOOTH",
"469 1 LINE",
"547 1 LINE",
"547 24 LINE",
"352 303 LINE SMOOTH",
"320 303 LINE"
);
}
);
width = 616;
}
);
},
{
glyphname = _m_curve;
lastChange = "2016-11-09 16:46:36 +0000";
layers = (
{
layerId = "7EBE3D46-E53E-419E-A3EC-596DA2EA1E0D";
name = Regular;
paths = (
{
closed = 1;
nodes = (
"389 -5 LINE",
"389 260 LINE SMOOTH",
"389 445 OFFCURVE",
"339 506 OFFCURVE",
"233 506 CURVE SMOOTH",
"161 506 OFFCURVE",
"130 472 OFFCURVE",
"118 421 CURVE",
"69 258 LINE",
"118 224 LINE",
"123 294 LINE",
"132 359 OFFCURVE",
"142 422 OFFCURVE",
"217 422 CURVE SMOOTH",
"272 422 OFFCURVE",
"297 381 OFFCURVE",
"297 245 CURVE",
"297 -5 LINE"
);
}
);
width = 741;
}
);
},
{
glyphname = _R_slash;
lastChange = "2016-11-09 17:43:01 +0000";
layers = (
{
layerId = "7EBE3D46-E53E-419E-A3EC-596DA2EA1E0D";
name = Regular;
paths = (
{
closed = 1;
nodes = (
"206 375 LINE SMOOTH",
"380 2 LINE",
"458 2 LINE",
"458 45 LINE",
"302 375 LINE SMOOTH"
);
}
);
width = 533;
}
);
},
{
glyphname = _fraction_slash;
lastChange = "2016-11-10 08:29:16 +0000";
layers = (
{
layerId = "7EBE3D46-E53E-419E-A3EC-596DA2EA1E0D";
name = Regular;
paths = (
{
closed = 1;
nodes = (
"411 700 LINE SMOOTH",
"182 14 LINE",
"182 1 LINE",
"242 1 LINE",
"463 686 LINE SMOOTH",
"463 700 LINE"
);
}
);
width = 710;
}
);
},
{
glyphname = _backslash;
lastChange = "2016-11-10 09:15:49 +0000";
layers = (
{
layerId = "7EBE3D46-E53E-419E-A3EC-596DA2EA1E0D";
name = Regular;
paths = (
{
closed = 1;
nodes = (
"70 666 LINE SMOOTH",
"291 1 LINE",
"391 1 LINE",
"391 44 LINE",
"162 700 LINE SMOOTH",
"70 700 LINE"
);
}
);
width = 600;
}
);
},
{
glyphname = _exclamation;
lastChange = "2016-11-10 09:34:10 +0000";
layers = (
{
layerId = "7EBE3D46-E53E-419E-A3EC-596DA2EA1E0D";
name = Regular;
paths = (
{
closed = 1;
nodes = (
"84 238 LINE",
"177 238 LINE",
"197 699 LINE",
"64 699 LINE"
);
}
);
width = 600;
}
);
},
{
glyphname = _two_question;
lastChange = "2016-11-10 09:39:24 +0000";
layers = (
{
layerId = "7EBE3D46-E53E-419E-A3EC-596DA2EA1E0D";
name = Regular;
paths = (
{
closed = 1;
nodes = (
"247 276 OFFCURVE",
"215 229 OFFCURVE",
"215 229 CURVE SMOOTH",
"215 229 OFFCURVE",
"302 198 OFFCURVE",
"302 198 CURVE",
"439 386 OFFCURVE",
"474 449 OFFCURVE",
"474 538 CURVE SMOOTH",
"474 644 OFFCURVE",
"405 716 OFFCURVE",
"260 716 CURVE SMOOTH",
"214 716 OFFCURVE",
"148 707 OFFCURVE",
"96 671 CURVE",
"114 581 LINE",
"155 602 OFFCURVE",
"203 622 OFFCURVE",
"259 622 CURVE SMOOTH",
"349 622 OFFCURVE",
"372 578 OFFCURVE",
"372 530 CURVE SMOOTH",
"372 465 OFFCURVE",
"349 423 OFFCURVE",
"251 282 CURVE SMOOTH"
);
}
);
width = 565;
}
);
},
{
glyphname = _quote;
lastChange = "2016-11-10 09:41:40 +0000";
layers = (
{
layerId = "7EBE3D46-E53E-419E-A3EC-596DA2EA1E0D";
name = Regular;
paths = (
{
closed = 1;
nodes = (
"123 -20 OFFCURVE",
"101 -61 OFFCURVE",
"73 -117 CURVE",
"140 -127 LINE SMOOTH",
"141 -127 OFFCURVE",
"217 -35 OFFCURVE",
"217 70 CURVE",
"123 71 LINE"
);
}
);
width = 600;
}
);
},
{
glyphname = _bracket;
lastChange = "2016-11-10 09:51:25 +0000";
layers = (
{
layerId = "7EBE3D46-E53E-419E-A3EC-596DA2EA1E0D";
name = Regular;
paths = (
{
closed = 1;
nodes = (
"472 -139 LINE",
"349 -18 OFFCURVE",
"286 121 OFFCURVE",
"286 270 CURVE SMOOTH",
"286 419 OFFCURVE",
"348 556 OFFCURVE",
"472 679 CURVE",
"403 729 LINE",
"240 574 OFFCURVE",
"180 419 OFFCURVE",
"180 264 CURVE SMOOTH",
"180 98 OFFCURVE",
"254 -53 OFFCURVE",
"402 -190 CURVE"
);
}
);
width = 600;
}
);
},
{
glyphname = _square_bracket;
lastChange = "2016-11-10 09:53:06 +0000";
layers = (
{
layerId = "7EBE3D46-E53E-419E-A3EC-596DA2EA1E0D";
name = Regular;
paths = (
{
closed = 1;
nodes = (
"290 701 LINE",
"95 701 LINE",
"95 -201 LINE",
"290 -201 LINE",
"290 -117 LINE",
"200 -117 LINE",
"200 616 LINE",
"290 616 LINE"
);
}
);
width = 600;
}
);
},
{
glyphname = _percent;
lastChange = "2016-11-10 10:38:34 +0000";
layers = (
{
layerId = "7EBE3D46-E53E-419E-A3EC-596DA2EA1E0D";
name = Regular;
paths = (
{
closed = 1;
nodes = (
"75 535 OFFCURVE",
"11 497 OFFCURVE",
"11 387 CURVE SMOOTH",
"11 273 OFFCURVE",
"75 240 OFFCURVE",
"143 240 CURVE SMOOTH",
"210 240 OFFCURVE",
"276 274 OFFCURVE",
"276 387 CURVE SMOOTH",
"276 497 OFFCURVE",
"210 535 OFFCURVE",
"143 535 CURVE SMOOTH"
);
},
{
closed = 1;
nodes = (
"175 465 OFFCURVE",
"190 454 OFFCURVE",
"190 387 CURVE SMOOTH",
"190 318 OFFCURVE",
"175 310 OFFCURVE",
"143 310 CURVE SMOOTH",
"111 310 OFFCURVE",
"96 322 OFFCURVE",
"96 387 CURVE SMOOTH",
"96 453 OFFCURVE",
"113 465 OFFCURVE",
"143 465 CURVE SMOOTH"
);
}
);
width = 600;
}
);
},
{
glyphname = _multiply;
lastChange = "2016-11-10 10:53:44 +0000";
layers = (
{
layerId = "7EBE3D46-E53E-419E-A3EC-596DA2EA1E0D";
name = Regular;
paths = (
{
closed = 1;
nodes = (
"413 280 LINE SMOOTH",
"198 509 LINE",
"136 456 LINE",
"354 221 LINE SMOOTH"
);
}
);
width = 561;
}
);
},
{
glyphname = _less_equal;
lastChange = "2016-11-10 11:01:51 +0000";
layers = (
{
layerId = "7EBE3D46-E53E-419E-A3EC-596DA2EA1E0D";
name = Regular;
paths = (
{
closed = 1;
nodes = (
"490 414 LINE SMOOTH",
"105 606 LINE",
"82 606 LINE",
"82 518 LINE",
"382 381 LINE SMOOTH",
"490 382 LINE"
);
}
);
width = 600;
}
);
},
{
glyphname = _tile;
lastChange = "2016-11-10 11:05:06 +0000";
layers = (
{
layerId = "7EBE3D46-E53E-419E-A3EC-596DA2EA1E0D";
name = Regular;
paths = (
{
closed = 1;
nodes = (
"478 471 LINE",
"478 424 OFFCURVE",
"473 392 OFFCURVE",
"464 377 CURVE SMOOTH",
"455 362 OFFCURVE",
"441 355 OFFCURVE",
"420 355 CURVE SMOOTH",
"351 355 OFFCURVE",
"313 490 OFFCURVE",
"203 490 CURVE SMOOTH",
"102 490 OFFCURVE",
"62 424 OFFCURVE",
"62 334 CURVE",
"141 294 LINE",
"141 375 OFFCURVE",
"160 402 OFFCURVE",
"199 402 CURVE SMOOTH",
"268 402 OFFCURVE",
"307 266 OFFCURVE",
"417 266 CURVE SMOOTH",
"507 266 OFFCURVE",
"558 319 OFFCURVE",
"558 431 CURVE"
);
}
);
width = 600;
}
);
},
{
glyphname = _f_integral;
lastChange = "2016-11-10 11:18:15 +0000";
layers = (
{
layerId = "7EBE3D46-E53E-419E-A3EC-596DA2EA1E0D";
name = Regular;
paths = (
{
closed = 1;
nodes = (
"220 483 LINE SMOOTH",
"220 582 OFFCURVE",
"239 634 OFFCURVE",
"320 634 CURVE",
"300 726 LINE",
"191 724 OFFCURVE",
"127 641 OFFCURVE",
"127 535 CURVE SMOOTH",
"127 366 LINE",
"220 366 LINE"
);
}
);
width = 390;
}
);
},
{
glyphname = _circum_part;
lastChange = "2016-11-10 11:23:16 +0000";
layers = (
{
layerId = "7EBE3D46-E53E-419E-A3EC-596DA2EA1E0D";
name = Regular;
paths = (
{
closed = 1;
nodes = (
"261 253 LINE SMOOTH",
"388 93 LINE",
"486 93 LINE",
"486 116 LINE",
"294 341 LINE SMOOTH",
"262 341 LINE"
);
}
);
width = 600;
}
);
},
{
glyphname = _circle;
lastChange = "2016-11-10 11:34:50 +0000";
layers = (
{
layerId = "7EBE3D46-E53E-419E-A3EC-596DA2EA1E0D";
name = Regular;
paths = (
{
closed = 1;
nodes = (
"432 56 OFFCURVE",
"574 197 OFFCURVE",
"574 372 CURVE SMOOTH",
"574 546 OFFCURVE",
"432 688 OFFCURVE",
"258 688 CURVE SMOOTH",
"83 688 OFFCURVE",
"-58 546 OFFCURVE",
"-58 372 CURVE SMOOTH",
"-58 197 OFFCURVE",
"83 56 OFFCURVE",
"258 56 CURVE SMOOTH"
);
},
{
closed = 1;
nodes = (
"115 113 OFFCURVE",
"4 234 OFFCURVE",
"4 375 CURVE SMOOTH",
"4 517 OFFCURVE",
"115 633 OFFCURVE",
"257 633 CURVE SMOOTH",
"399 633 OFFCURVE",
"511 517 OFFCURVE",
"511 375 CURVE SMOOTH",
"511 234 OFFCURVE",
"399 113 OFFCURVE",
"257 113 CURVE SMOOTH"
);
}
